{
    "asset" : {
        "generator" : "Khronos glTF Blender I/O v1.7.33",
        "version" : "2.0"
    },
    "scene" : 0,
    "scenes" : [
        {
            "name" : "Scene",
            "nodes" : [
                0,
                1,
                2,
                3
            ]
        }
    ],
    "nodes" : [
        {
            "mesh" : 0,
            "name" : "TreasureCoins",
            "rotation" : [
                0,
                0.7071068286895752,
                0,
                0.7071068286895752
            ],
            "translation" : [
                -0.04151490703225136,
                0.13000932335853577,
                0
            ]
        },
        {
            "mesh" : 1,
            "name" : "TreasureChest",
            "rotation" : [
                -0.5,
                -0.5,
                -0.5,
                0.5
            ]
        },
        {
            "mesh" : 2,
            "name" : "Text",
            "rotation" : [
                0.5661587119102478,
                -0.42363232374191284,
                0.42363235354423523,
                0.566158652305603
            ],
            "scale" : [
                1.1950730085372925,
                1.0183489322662354,
                1.1515077352523804
            ],
            "translation" : [
                0.5759062170982361,
                5.281599998474121,
                -2.8911995887756348
            ]
        },
        {
            "mesh" : 3,
            "name" : "Cube",
            "rotation" : [
                0,
                0.14252635836601257,
                0,
                0.9897910356521606
            ],
            "scale" : [
                0.990545392036438,
                0.8130401968955994,
                0.5792536735534668
            ],
            "translation" : [
                0.8642425537109375,
                4.2497358322143555,
                -2.0279808044433594
            ]
        }
    ],
    "materials" : [
        {
            "doubleSided" : true,
            "name" : "TreasureCoins",
            "pbrMetallicRoughness" : {
                "baseColorTexture" : {
                    "index" : 0
                },
                "roughnessFactor" : 0.858578622341156
            }
        },
        {
            "doubleSided" : true,
            "name" : "Material.001",
            "pbrMetallicRoughness" : {
                "baseColorTexture" : {
                    "index" : 1
                },
                "metallicFactor" : 0,
                "roughnessFactor" : 0.5
            }
        },
        {
            "doubleSided" : true,
            "name" : "Material",
            "pbrMetallicRoughness" : {
                "baseColorFactor" : [
                    0,
                    0,
                    0,
                    1
                ],
                "metallicFactor" : 0,
                "roughnessFactor" : 0.5
            }
        },
        {
            "doubleSided" : true,
            "name" : "Material.002",
            "pbrMetallicRoughness" : {
                "baseColorFactor" : [
                    0.9372473955154419,
                    0.9335125088691711,
                    1,
                    1
                ],
                "metallicFactor" : 0,
                "roughnessFactor" : 0.5
            }
        }
    ],
    "meshes" : [
        {
            "name" : "Mesh.001",
            "primitives" : [
                {
                    "attributes" : {
                        "POSITION" : 0,
                        "NORMAL" : 1,
                        "TEXCOORD_0" : 2,
                        "TEXCOORD_1" : 3
                    },
                    "indices" : 4,
                    "material" : 0
                }
            ]
        },
        {
            "name" : "Mesh",
            "primitives" : [
                {
                    "attributes" : {
                        "POSITION" : 5,
                        "NORMAL" : 6,
                        "TEXCOORD_0" : 7,
                        "TEXCOORD_1" : 8
                    },
                    "indices" : 9,
                    "material" : 1
                }
            ]
        },
        {
            "name" : "Text",
            "primitives" : [
                {
                    "attributes" : {
                        "POSITION" : 10,
                        "NORMAL" : 11,
                        "TEXCOORD_0" : 12
                    },
                    "indices" : 13,
                    "material" : 2
                }
            ]
        },
        {
            "name" : "Cube",
            "primitives" : [
                {
                    "attributes" : {
                        "POSITION" : 14,
                        "NORMAL" : 15,
                        "TEXCOORD_0" : 16
                    },
                    "indices" : 17,
                    "material" : 3
                }
            ]
        }
    ],
    "textures" : [
        {
            "sampler" : 0,
            "source" : 0
        },
        {
            "sampler" : 0,
            "source" : 1
        }
    ],
    "images" : [
        {
            "mimeType" : "image/png",
            "name" : "Coins",
            "uri" : "Coins.png"
        },
        {
            "mimeType" : "image/png",
            "name" : "TreasureChest_WoodGold",
            "uri" : "TreasureChest_WoodGold.png"
        }
    ],
    "accessors" : [
        {
            "bufferView" : 0,
            "componentType" : 5126,
            "count" : 8,
            "max" : [
                0.5518577098846436,
                0.5313771963119507,
                0.4306091070175171
            ],
            "min" : [
                -0.5518585443496704,
                0.4437781870365143,
                -0.37146151065826416
            ],
            "type" : "VEC3"
        },
        {
            "bufferView" : 1,
            "componentType" : 5126,
            "count" : 8,
            "type" : "VEC3"
        },
        {
            "bufferView" : 2,
            "componentType" : 5126,
            "count" : 8,
            "type" : "VEC2"
        },
        {
            "bufferView" : 3,
            "componentType" : 5126,
            "count" : 8,
            "type" : "VEC2"
        },
        {
            "bufferView" : 4,
            "componentType" : 5123,
            "count" : 30,
            "type" : "SCALAR"
        },
        {
            "bufferView" : 5,
            "componentType" : 5126,
            "count" : 182,
            "max" : [
                0.700825572013855,
                0.6145080924034119,
                1.463465929031372
            ],
            "min" : [
                -0.7008259296417236,
                -0.5768589377403259,
                0.00445603160187602
            ],
            "type" : "VEC3"
        },
        {
            "bufferView" : 6,
            "componentType" : 5126,
            "count" : 182,
            "type" : "VEC3"
        },
        {
            "bufferView" : 7,
            "componentType" : 5126,
            "count" : 182,
            "type" : "VEC2"
        },
        {
            "bufferView" : 8,
            "componentType" : 5126,
            "count" : 182,
            "type" : "VEC2"
        },
        {
            "bufferView" : 9,
            "componentType" : 5123,
            "count" : 354,
            "type" : "SCALAR"
        },
        {
            "bufferView" : 10,
            "componentType" : 5126,
            "count" : 239371,
            "max" : [
                1.4951838254928589,
                0.03999999910593033,
                1.8508000373840332
            ],
            "min" : [
                0,
                -0.03999999910593033,
                -0.07988648861646652
            ],
            "type" : "VEC3"
        },
        {
            "bufferView" : 11,
            "componentType" : 5126,
            "count" : 239371,
            "type" : "VEC3"
        },
        {
            "bufferView" : 12,
            "componentType" : 5126,
            "count" : 239371,
            "type" : "VEC2"
        },
        {
            "bufferView" : 13,
            "componentType" : 5125,
            "count" : 435168,
            "type" : "SCALAR"
        },
        {
            "bufferView" : 14,
            "componentType" : 5126,
            "count" : 24,
            "max" : [
                0.024942398071289062,
                1.5706713199615479,
                1.7796167135238647
            ],
            "min" : [
                -0.024942398071289062,
                -1.5706713199615479,
                -1.7796167135238647
            ],
            "type" : "VEC3"
        },
        {
            "bufferView" : 15,
            "componentType" : 5126,
            "count" : 24,
            "type" : "VEC3"
        },
        {
            "bufferView" : 16,
            "componentType" : 5126,
            "count" : 24,
            "type" : "VEC2"
        },
        {
            "bufferView" : 17,
            "componentType" : 5123,
            "count" : 36,
            "type" : "SCALAR"
        }
    ],
    "bufferViews" : [
        {
            "buffer" : 0,
            "byteLength" : 96,
            "byteOffset" : 0
        },
        {
            "buffer" : 0,
            "byteLength" : 96,
            "byteOffset" : 96
        },
        {
            "buffer" : 0,
            "byteLength" : 64,
            "byteOffset" : 192
        },
        {
            "buffer" : 0,
            "byteLength" : 64,
            "byteOffset" : 256
        },
        {
            "buffer" : 0,
            "byteLength" : 60,
            "byteOffset" : 320
        },
        {
            "buffer" : 0,
            "byteLength" : 2184,
            "byteOffset" : 380
        },
        {
            "buffer" : 0,
            "byteLength" : 2184,
            "byteOffset" : 2564
        },
        {
            "buffer" : 0,
            "byteLength" : 1456,
            "byteOffset" : 4748
        },
        {
            "buffer" : 0,
            "byteLength" : 1456,
            "byteOffset" : 6204
        },
        {
            "buffer" : 0,
            "byteLength" : 708,
            "byteOffset" : 7660
        },
        {
            "buffer" : 0,
            "byteLength" : 2872452,
            "byteOffset" : 8368
        },
        {
            "buffer" : 0,
            "byteLength" : 2872452,
            "byteOffset" : 2880820
        },
        {
            "buffer" : 0,
            "byteLength" : 1914968,
            "byteOffset" : 5753272
        },
        {
            "buffer" : 0,
            "byteLength" : 1740672,
            "byteOffset" : 7668240
        },
        {
            "buffer" : 0,
            "byteLength" : 288,
            "byteOffset" : 9408912
        },
        {
            "buffer" : 0,
            "byteLength" : 288,
            "byteOffset" : 9409200
        },
        {
            "buffer" : 0,
            "byteLength" : 192,
            "byteOffset" : 9409488
        },
        {
            "buffer" : 0,
            "byteLength" : 72,
            "byteOffset" : 9409680
        }
    ],
    "samplers" : [
        {
            "magFilter" : 9729,
            "minFilter" : 9987
        }
    ],
    "buffers" : [
        {
            "byteLength" : 9409752,
            "uri" : "Tesouro.bin"
        }
    ]
}
