{
    "asset" : {
        "generator" : "Khronos glTF Blender I/O v1.7.33",
        "version" : "2.0"
    },
    "scene" : 0,
    "scenes" : [
        {
            "name" : "Scene",
            "nodes" : [
                0,
                1,
                2,
                3
            ]
        }
    ],
    "nodes" : [
        {
            "mesh" : 0,
            "name" : "DenteTubarao",
            "rotation" : [
                0,
                0.06572209298610687,
                0,
                0.9978380799293518
            ],
            "scale" : [
                1.8115475177764893,
                1.8115475177764893,
                1.8115475177764893
            ],
            "translation" : [
                0,
                1,
                0
            ]
        },
        {
            "mesh" : 1,
            "name" : "Cube",
            "rotation" : [
                0,
                0.14360615611076355,
                0,
                0.9896349310874939
            ],
            "scale" : [
                0.05426759645342827,
                1.9936931133270264,
                1.38577401638031
            ],
            "translation" : [
                0.31809061765670776,
                3.115178346633911,
                -2.106274127960205
            ]
        },
        {
            "mesh" : 2,
            "name" : "pCube9",
            "rotation" : [
                -0.5662026405334473,
                0.42357364296913147,
                -0.42357370257377625,
                -0.5662025213241577
            ],
            "scale" : [
                0.04757443442940712,
                0.0451238639652729,
                0.0405796654522419
            ],
            "translation" : [
                0,
                3.135422706604004,
                -3.2766571044921875
            ]
        },
        {
            "mesh" : 3,
            "name" : "Text",
            "rotation" : [
                0.5661587119102478,
                -0.42363232374191284,
                0.42363235354423523,
                0.566158652305603
            ],
            "scale" : [
                1.1950730085372925,
                1.0183489322662354,
                1.1515077352523804
            ],
            "translation" : [
                0.12062656879425049,
                4.171459197998047,
                -2.7280032634735107
            ]
        }
    ],
    "materials" : [
        {
            "doubleSided" : true,
            "name" : "fossil16.002",
            "normalTexture" : {
                "index" : 0
            },
            "pbrMetallicRoughness" : {
                "baseColorTexture" : {
                    "index" : 1
                },
                "metallicFactor" : 0.748031497001648,
                "roughnessFactor" : 0.5527864098548889
            }
        },
        {
            "doubleSided" : true,
            "name" : "Material.003",
            "normalTexture" : {
                "index" : 2
            },
            "pbrMetallicRoughness" : {
                "baseColorTexture" : {
                    "index" : 3
                },
                "metallicFactor" : 0,
                "roughnessFactor" : 0.5
            }
        },
        {
            "doubleSided" : true,
            "name" : "Material.002",
            "pbrMetallicRoughness" : {
                "baseColorTexture" : {
                    "index" : 4
                },
                "metallicFactor" : 0,
                "roughnessFactor" : 0.5
            }
        },
        {
            "doubleSided" : true,
            "name" : "Black",
            "pbrMetallicRoughness" : {
                "baseColorTexture" : {
                    "index" : 5
                },
                "metallicFactor" : 0,
                "roughnessFactor" : 0.5
            }
        }
    ],
    "meshes" : [
        {
            "name" : "DenteTubarao",
            "primitives" : [
                {
                    "attributes" : {
                        "POSITION" : 0,
                        "NORMAL" : 1,
                        "TEXCOORD_0" : 2
                    },
                    "indices" : 3,
                    "material" : 0
                }
            ]
        },
        {
            "name" : "Cube",
            "primitives" : [
                {
                    "attributes" : {
                        "POSITION" : 4,
                        "NORMAL" : 5,
                        "TEXCOORD_0" : 6
                    },
                    "indices" : 7,
                    "material" : 1
                }
            ]
        },
        {
            "name" : "Mesh.002",
            "primitives" : [
                {
                    "attributes" : {
                        "POSITION" : 8,
                        "NORMAL" : 9,
                        "TEXCOORD_0" : 10
                    },
                    "indices" : 11,
                    "material" : 2
                }
            ]
        },
        {
            "name" : "Text",
            "primitives" : [
                {
                    "attributes" : {
                        "POSITION" : 12,
                        "NORMAL" : 13,
                        "TEXCOORD_0" : 14
                    },
                    "indices" : 15,
                    "material" : 3
                }
            ]
        }
    ],
    "textures" : [
        {
            "sampler" : 0,
            "source" : 0
        },
        {
            "sampler" : 0,
            "source" : 1
        },
        {
            "sampler" : 0,
            "source" : 2
        },
        {
            "sampler" : 0,
            "source" : 2
        },
        {
            "sampler" : 0,
            "source" : 3
        },
        {
            "sampler" : 0,
            "source" : 4
        }
    ],
    "images" : [
        {
            "mimeType" : "image/jpeg",
            "name" : "DenteTubarao_normals",
            "uri" : "DenteTubarao_normals.jpg"
        },
        {
            "mimeType" : "image/jpeg",
            "name" : "DenteTubarao_albedo",
            "uri" : "DenteTubarao_albedo.jpg"
        },
        {
            "mimeType" : "image/jpeg",
            "name" : "canvas",
            "uri" : "canvas.jpg"
        },
        {
            "mimeType" : "image/png",
            "name" : "wood_dark",
            "uri" : "wood_dark.png"
        },
        {
            "mimeType" : "image/png",
            "name" : "Preto",
            "uri" : "Preto.png"
        }
    ],
    "accessors" : [
        {
            "bufferView" : 0,
            "componentType" : 5126,
            "count" : 1617,
            "max" : [
                0.3463077247142792,
                0.16186675429344177,
                0.31925421953201294
            ],
            "min" : [
                -0.6129122376441956,
                -0.11216480284929276,
                -0.32486116886138916
            ],
            "type" : "VEC3"
        },
        {
            "bufferView" : 1,
            "componentType" : 5126,
            "count" : 1617,
            "type" : "VEC3"
        },
        {
            "bufferView" : 2,
            "componentType" : 5126,
            "count" : 1617,
            "type" : "VEC2"
        },
        {
            "bufferView" : 3,
            "componentType" : 5123,
            "count" : 4497,
            "type" : "SCALAR"
        },
        {
            "bufferView" : 4,
            "componentType" : 5126,
            "count" : 24,
            "max" : [
                0.18682098388671875,
                0.6315023899078369,
                0.5157340168952942
            ],
            "min" : [
                -0.18682098388671875,
                -0.6315023899078369,
                -0.5157340168952942
            ],
            "type" : "VEC3"
        },
        {
            "bufferView" : 5,
            "componentType" : 5126,
            "count" : 24,
            "type" : "VEC3"
        },
        {
            "bufferView" : 6,
            "componentType" : 5126,
            "count" : 24,
            "type" : "VEC2"
        },
        {
            "bufferView" : 7,
            "componentType" : 5123,
            "count" : 36,
            "type" : "SCALAR"
        },
        {
            "bufferView" : 8,
            "componentType" : 5126,
            "count" : 232,
            "max" : [
                45.365386962890625,
                2.9853057861328125,
                35.689453125
            ],
            "min" : [
                5.214750289916992,
                1.9073486328125e-06,
                -35.689453125
            ],
            "type" : "VEC3"
        },
        {
            "bufferView" : 9,
            "componentType" : 5126,
            "count" : 232,
            "type" : "VEC3"
        },
        {
            "bufferView" : 10,
            "componentType" : 5126,
            "count" : 232,
            "type" : "VEC2"
        },
        {
            "bufferView" : 11,
            "componentType" : 5123,
            "count" : 444,
            "type" : "SCALAR"
        },
        {
            "bufferView" : 12,
            "componentType" : 5126,
            "count" : 617995,
            "max" : [
                1.099170446395874,
                0.009999999776482582,
                1.7825748920440674
            ],
            "min" : [
                0.0015574051067233086,
                -0.009999999776482582,
                -0.07653815299272537
            ],
            "type" : "VEC3"
        },
        {
            "bufferView" : 13,
            "componentType" : 5126,
            "count" : 617995,
            "type" : "VEC3"
        },
        {
            "bufferView" : 14,
            "componentType" : 5126,
            "count" : 617995,
            "type" : "VEC2"
        },
        {
            "bufferView" : 15,
            "componentType" : 5125,
            "count" : 1122846,
            "type" : "SCALAR"
        }
    ],
    "bufferViews" : [
        {
            "buffer" : 0,
            "byteLength" : 19404,
            "byteOffset" : 0
        },
        {
            "buffer" : 0,
            "byteLength" : 19404,
            "byteOffset" : 19404
        },
        {
            "buffer" : 0,
            "byteLength" : 12936,
            "byteOffset" : 38808
        },
        {
            "buffer" : 0,
            "byteLength" : 8994,
            "byteOffset" : 51744
        },
        {
            "buffer" : 0,
            "byteLength" : 288,
            "byteOffset" : 60740
        },
        {
            "buffer" : 0,
            "byteLength" : 288,
            "byteOffset" : 61028
        },
        {
            "buffer" : 0,
            "byteLength" : 192,
            "byteOffset" : 61316
        },
        {
            "buffer" : 0,
            "byteLength" : 72,
            "byteOffset" : 61508
        },
        {
            "buffer" : 0,
            "byteLength" : 2784,
            "byteOffset" : 61580
        },
        {
            "buffer" : 0,
            "byteLength" : 2784,
            "byteOffset" : 64364
        },
        {
            "buffer" : 0,
            "byteLength" : 1856,
            "byteOffset" : 67148
        },
        {
            "buffer" : 0,
            "byteLength" : 888,
            "byteOffset" : 69004
        },
        {
            "buffer" : 0,
            "byteLength" : 7415940,
            "byteOffset" : 69892
        },
        {
            "buffer" : 0,
            "byteLength" : 7415940,
            "byteOffset" : 7485832
        },
        {
            "buffer" : 0,
            "byteLength" : 4943960,
            "byteOffset" : 14901772
        },
        {
            "buffer" : 0,
            "byteLength" : 4491384,
            "byteOffset" : 19845732
        }
    ],
    "samplers" : [
        {
            "magFilter" : 9729,
            "minFilter" : 9987
        }
    ],
    "buffers" : [
        {
            "byteLength" : 24337116,
            "uri" : "Fossil.bin"
        }
    ]
}
