{
    "asset" : {
        "generator" : "Khronos glTF Blender I/O v1.7.33",
        "version" : "2.0"
    },
    "scene" : 0,
    "scenes" : [
        {
            "name" : "Scene",
            "nodes" : [
                0,
                1,
                2,
                3,
                4,
                5
            ]
        }
    ],
    "nodes" : [
        {
            "mesh" : 0,
            "name" : "SM_Canon",
            "rotation" : [
                0.7071068286895752,
                0,
                0,
                0.7071067094802856
            ],
            "scale" : [
                0.023695191368460655,
                0.023695191368460655,
                0.023695191368460655
            ],
            "translation" : [
                2.4506421089172363,
                -0.045686960220336914,
                1.1452090740203857
            ]
        },
        {
            "mesh" : 1,
            "name" : "SM_Canon.001",
            "rotation" : [
                0.7071068286895752,
                0,
                0,
                0.7071067094802856
            ],
            "scale" : [
                0.023695191368460655,
                0.023695191368460655,
                0.023695191368460655
            ],
            "translation" : [
                2.4506421089172363,
                -0.045686960220336914,
                1.1452090740203857
            ]
        },
        {
            "mesh" : 2,
            "name" : "SM_Canon.002",
            "rotation" : [
                0.7071068286895752,
                0,
                0,
                0.7071067094802856
            ],
            "scale" : [
                0.023695191368460655,
                0.023695191368460655,
                0.023695191368460655
            ],
            "translation" : [
                2.4506421089172363,
                -0.045686960220336914,
                1.1452090740203857
            ]
        },
        {
            "mesh" : 3,
            "name" : "SM_Canon.003",
            "rotation" : [
                0.7071068286895752,
                0,
                0,
                0.7071067094802856
            ],
            "scale" : [
                0.023695191368460655,
                0.023695191368460655,
                0.023695191368460655
            ],
            "translation" : [
                2.4506421089172363,
                -0.045686960220336914,
                1.1452090740203857
            ]
        },
        {
            "mesh" : 4,
            "name" : "Cube",
            "rotation" : [
                0,
                0.14252635836601257,
                0,
                0.9897910356521606
            ],
            "scale" : [
                0.990545392036438,
                0.8130401968955994,
                0.5792536735534668
            ],
            "translation" : [
                0.12423807382583618,
                3.5140557289123535,
                -2.0279808044433594
            ]
        },
        {
            "mesh" : 5,
            "name" : "Text",
            "rotation" : [
                0.5661587119102478,
                -0.42363232374191284,
                0.42363235354423523,
                0.566158652305603
            ],
            "scale" : [
                1.1950730085372925,
                1.0183489322662354,
                1.1515077352523804
            ],
            "translation" : [
                -0.15587663650512695,
                4.5293288230896,
                -2.8765721321105957
            ]
        }
    ],
    "materials" : [
        {
            "doubleSided" : true,
            "name" : "Canon_Metal",
            "normalTexture" : {
                "index" : 0
            },
            "pbrMetallicRoughness" : {
                "baseColorTexture" : {
                    "index" : 1
                },
                "metallicRoughnessTexture" : {
                    "index" : 2
                }
            }
        },
        {
            "doubleSided" : true,
            "name" : "lambert1",
            "normalTexture" : {
                "index" : 3
            },
            "pbrMetallicRoughness" : {
                "baseColorTexture" : {
                    "index" : 4
                },
                "metallicRoughnessTexture" : {
                    "index" : 5
                }
            }
        },
        {
            "doubleSided" : true,
            "name" : "Canon_Wood",
            "normalTexture" : {
                "index" : 6
            },
            "pbrMetallicRoughness" : {
                "baseColorTexture" : {
                    "index" : 7
                },
                "metallicRoughnessTexture" : {
                    "index" : 8
                }
            }
        },
        {
            "doubleSided" : true,
            "name" : "Canon_Rope",
            "normalTexture" : {
                "index" : 9
            },
            "pbrMetallicRoughness" : {
                "baseColorTexture" : {
                    "index" : 10
                },
                "metallicRoughnessTexture" : {
                    "index" : 11
                }
            }
        },
        {
            "doubleSided" : true,
            "name" : "White.002",
            "pbrMetallicRoughness" : {}
        },
        {
            "doubleSided" : true,
            "name" : "Black",
            "pbrMetallicRoughness" : {
                "baseColorTexture" : {
                    "index" : 12
                },
                "metallicFactor" : 0,
                "roughnessFactor" : 0.5
            }
        }
    ],
    "meshes" : [
        {
            "name" : "meshId0_name",
            "primitives" : [
                {
                    "attributes" : {
                        "POSITION" : 0,
                        "NORMAL" : 1,
                        "TEXCOORD_0" : 2
                    },
                    "indices" : 3,
                    "material" : 0
                }
            ]
        },
        {
            "name" : "meshId1_name",
            "primitives" : [
                {
                    "attributes" : {
                        "POSITION" : 4,
                        "NORMAL" : 5,
                        "TEXCOORD_0" : 6
                    },
                    "indices" : 7,
                    "material" : 1
                }
            ]
        },
        {
            "name" : "meshId2_name",
            "primitives" : [
                {
                    "attributes" : {
                        "POSITION" : 8,
                        "NORMAL" : 9,
                        "TEXCOORD_0" : 10
                    },
                    "indices" : 11,
                    "material" : 2
                }
            ]
        },
        {
            "name" : "meshId3_name",
            "primitives" : [
                {
                    "attributes" : {
                        "POSITION" : 12,
                        "NORMAL" : 13,
                        "TEXCOORD_0" : 14
                    },
                    "indices" : 15,
                    "material" : 3
                }
            ]
        },
        {
            "name" : "Cube",
            "primitives" : [
                {
                    "attributes" : {
                        "POSITION" : 16,
                        "NORMAL" : 17,
                        "TEXCOORD_0" : 18
                    },
                    "indices" : 19,
                    "material" : 4
                }
            ]
        },
        {
            "name" : "Text",
            "primitives" : [
                {
                    "attributes" : {
                        "POSITION" : 20,
                        "NORMAL" : 21,
                        "TEXCOORD_0" : 22
                    },
                    "indices" : 23,
                    "material" : 5
                }
            ]
        }
    ],
    "textures" : [
        {
            "sampler" : 0,
            "source" : 0
        },
        {
            "sampler" : 0,
            "source" : 1
        },
        {
            "sampler" : 0,
            "source" : 2
        },
        {
            "sampler" : 0,
            "source" : 3
        },
        {
            "sampler" : 0,
            "source" : 4
        },
        {
            "sampler" : 0,
            "source" : 5
        },
        {
            "sampler" : 0,
            "source" : 6
        },
        {
            "sampler" : 0,
            "source" : 7
        },
        {
            "sampler" : 0,
            "source" : 8
        },
        {
            "sampler" : 0,
            "source" : 9
        },
        {
            "sampler" : 0,
            "source" : 10
        },
        {
            "sampler" : 0,
            "source" : 11
        },
        {
            "sampler" : 0,
            "source" : 12
        }
    ],
    "images" : [
        {
            "mimeType" : "image/png",
            "name" : "Canon_Metal_normal",
            "uri" : "Canon_Metal_normal.png"
        },
        {
            "mimeType" : "image/jpeg",
            "name" : "Canon_Metal_albedo",
            "uri" : "Canon_Metal_albedo.jpg"
        },
        {
            "mimeType" : "image/png",
            "name" : "Canon_Metal_metallic.jpg-Canon_Metal_roughness",
            "uri" : "Canon_Metal_metallic_jpg-Canon_Metal_roughness.png"
        },
        {
            "mimeType" : "image/png",
            "name" : "lambert1_normal",
            "uri" : "lambert1_normal.png"
        },
        {
            "mimeType" : "image/jpeg",
            "name" : "lambert1_albedo",
            "uri" : "lambert1_albedo.jpg"
        },
        {
            "mimeType" : "image/png",
            "name" : "lambert1_metallic-lambert1_roughness",
            "uri" : "lambert1_metallic-lambert1_roughness.png"
        },
        {
            "mimeType" : "image/png",
            "name" : "Canon_Wood_normal",
            "uri" : "Canon_Wood_normal.png"
        },
        {
            "mimeType" : "image/jpeg",
            "name" : "Canon_Wood_albedo",
            "uri" : "Canon_Wood_albedo.jpg"
        },
        {
            "mimeType" : "image/png",
            "name" : "Canon_Wood_metallic-Canon_Wood_roughness",
            "uri" : "Canon_Wood_metallic-Canon_Wood_roughness.png"
        },
        {
            "mimeType" : "image/png",
            "name" : "Canon_Rope_normal",
            "uri" : "Canon_Rope_normal.png"
        },
        {
            "mimeType" : "image/jpeg",
            "name" : "Canon_Rope_albedo",
            "uri" : "Canon_Rope_albedo.jpg"
        },
        {
            "mimeType" : "image/png",
            "name" : "Canon_Rope_metallic-Canon_Rope_roughness",
            "uri" : "Canon_Rope_metallic-Canon_Rope_roughness.png"
        },
        {
            "mimeType" : "image/png",
            "name" : "Preto",
            "uri" : "Preto.png"
        }
    ],
    "accessors" : [
        {
            "bufferView" : 0,
            "componentType" : 5126,
            "count" : 8408,
            "max" : [
                30.548803329467773,
                12.195205688476562,
                -8.265483856201172
            ],
            "min" : [
                -243.78384399414062,
                -107.08035278320312,
                -116.10639953613281
            ],
            "type" : "VEC3"
        },
        {
            "bufferView" : 1,
            "componentType" : 5126,
            "count" : 8408,
            "type" : "VEC3"
        },
        {
            "bufferView" : 2,
            "componentType" : 5126,
            "count" : 8408,
            "type" : "VEC2"
        },
        {
            "bufferView" : 3,
            "componentType" : 5123,
            "count" : 22848,
            "type" : "SCALAR"
        },
        {
            "bufferView" : 4,
            "componentType" : 5126,
            "count" : 134,
            "max" : [
                -98.42626190185547,
                -21.149688720703125,
                -2.1818349361419678
            ],
            "min" : [
                -114.1788558959961,
                -83.70146179199219,
                -76.52192687988281
            ],
            "type" : "VEC3"
        },
        {
            "bufferView" : 5,
            "componentType" : 5126,
            "count" : 134,
            "type" : "VEC3"
        },
        {
            "bufferView" : 6,
            "componentType" : 5126,
            "count" : 134,
            "type" : "VEC2"
        },
        {
            "bufferView" : 7,
            "componentType" : 5123,
            "count" : 291,
            "type" : "SCALAR"
        },
        {
            "bufferView" : 8,
            "componentType" : 5126,
            "count" : 1389,
            "max" : [
                25.0062313079834,
                1.361670970916748,
                0.8906559944152832
            ],
            "min" : [
                -143.28982543945312,
                -95.51414489746094,
                -69.95667266845703
            ],
            "type" : "VEC3"
        },
        {
            "bufferView" : 9,
            "componentType" : 5126,
            "count" : 1389,
            "type" : "VEC3"
        },
        {
            "bufferView" : 10,
            "componentType" : 5126,
            "count" : 1389,
            "type" : "VEC2"
        },
        {
            "bufferView" : 11,
            "componentType" : 5123,
            "count" : 4572,
            "type" : "SCALAR"
        },
        {
            "bufferView" : 12,
            "componentType" : 5126,
            "count" : 1361,
            "max" : [
                18.965919494628906,
                -5.847904205322266,
                -0.7064480185508728
            ],
            "min" : [
                -144.12216186523438,
                -89.49148559570312,
                -96.1666259765625
            ],
            "type" : "VEC3"
        },
        {
            "bufferView" : 13,
            "componentType" : 5126,
            "count" : 1361,
            "type" : "VEC3"
        },
        {
            "bufferView" : 14,
            "componentType" : 5126,
            "count" : 1361,
            "type" : "VEC2"
        },
        {
            "bufferView" : 15,
            "componentType" : 5123,
            "count" : 4656,
            "type" : "SCALAR"
        },
        {
            "bufferView" : 16,
            "componentType" : 5126,
            "count" : 24,
            "max" : [
                0.024942398071289062,
                1.5706713199615479,
                1.7796167135238647
            ],
            "min" : [
                -0.024942398071289062,
                -1.5706713199615479,
                -1.7796167135238647
            ],
            "type" : "VEC3"
        },
        {
            "bufferView" : 17,
            "componentType" : 5126,
            "count" : 24,
            "type" : "VEC3"
        },
        {
            "bufferView" : 18,
            "componentType" : 5126,
            "count" : 24,
            "type" : "VEC2"
        },
        {
            "bufferView" : 19,
            "componentType" : 5123,
            "count" : 36,
            "type" : "SCALAR"
        },
        {
            "bufferView" : 20,
            "componentType" : 5126,
            "count" : 197823,
            "max" : [
                1.497257113456726,
                0.009999999776482582,
                1.8142002820968628
            ],
            "min" : [
                0.0011474211933091283,
                -0.009999999776482582,
                -0.08814838528633118
            ],
            "type" : "VEC3"
        },
        {
            "bufferView" : 21,
            "componentType" : 5126,
            "count" : 197823,
            "type" : "VEC3"
        },
        {
            "bufferView" : 22,
            "componentType" : 5126,
            "count" : 197823,
            "type" : "VEC2"
        },
        {
            "bufferView" : 23,
            "componentType" : 5125,
            "count" : 360276,
            "type" : "SCALAR"
        }
    ],
    "bufferViews" : [
        {
            "buffer" : 0,
            "byteLength" : 100896,
            "byteOffset" : 0
        },
        {
            "buffer" : 0,
            "byteLength" : 100896,
            "byteOffset" : 100896
        },
        {
            "buffer" : 0,
            "byteLength" : 67264,
            "byteOffset" : 201792
        },
        {
            "buffer" : 0,
            "byteLength" : 45696,
            "byteOffset" : 269056
        },
        {
            "buffer" : 0,
            "byteLength" : 1608,
            "byteOffset" : 314752
        },
        {
            "buffer" : 0,
            "byteLength" : 1608,
            "byteOffset" : 316360
        },
        {
            "buffer" : 0,
            "byteLength" : 1072,
            "byteOffset" : 317968
        },
        {
            "buffer" : 0,
            "byteLength" : 582,
            "byteOffset" : 319040
        },
        {
            "buffer" : 0,
            "byteLength" : 16668,
            "byteOffset" : 319624
        },
        {
            "buffer" : 0,
            "byteLength" : 16668,
            "byteOffset" : 336292
        },
        {
            "buffer" : 0,
            "byteLength" : 11112,
            "byteOffset" : 352960
        },
        {
            "buffer" : 0,
            "byteLength" : 9144,
            "byteOffset" : 364072
        },
        {
            "buffer" : 0,
            "byteLength" : 16332,
            "byteOffset" : 373216
        },
        {
            "buffer" : 0,
            "byteLength" : 16332,
            "byteOffset" : 389548
        },
        {
            "buffer" : 0,
            "byteLength" : 10888,
            "byteOffset" : 405880
        },
        {
            "buffer" : 0,
            "byteLength" : 9312,
            "byteOffset" : 416768
        },
        {
            "buffer" : 0,
            "byteLength" : 288,
            "byteOffset" : 426080
        },
        {
            "buffer" : 0,
            "byteLength" : 288,
            "byteOffset" : 426368
        },
        {
            "buffer" : 0,
            "byteLength" : 192,
            "byteOffset" : 426656
        },
        {
            "buffer" : 0,
            "byteLength" : 72,
            "byteOffset" : 426848
        },
        {
            "buffer" : 0,
            "byteLength" : 2373876,
            "byteOffset" : 426920
        },
        {
            "buffer" : 0,
            "byteLength" : 2373876,
            "byteOffset" : 2800796
        },
        {
            "buffer" : 0,
            "byteLength" : 1582584,
            "byteOffset" : 5174672
        },
        {
            "buffer" : 0,
            "byteLength" : 1441104,
            "byteOffset" : 6757256
        }
    ],
    "samplers" : [
        {
            "magFilter" : 9729,
            "minFilter" : 9987
        }
    ],
    "buffers" : [
        {
            "byteLength" : 8198360,
            "uri" : "Canhao.bin"
        }
    ]
}
