{
    "asset" : {
        "generator" : "Khronos glTF Blender I/O v1.7.33",
        "version" : "2.0"
    },
    "scene" : 0,
    "scenes" : [
        {
            "name" : "Scene",
            "nodes" : [
                0,
                1,
                2,
                3,
                4,
                5
            ]
        }
    ],
    "nodes" : [
        {
            "mesh" : 0,
            "name" : "Cube",
            "scale" : [
                0.5003781914710999,
                0.5003781914710999,
                0.5003781914710999
            ],
            "translation" : [
                0,
                0.34695160388946533,
                0
            ]
        },
        {
            "mesh" : 1,
            "name" : "Cone",
            "scale" : [
                0.3449203073978424,
                0.23632009327411652,
                0.3449203073978424
            ],
            "translation" : [
                0,
                3.0861592292785645,
                0
            ]
        },
        {
            "mesh" : 2,
            "name" : "Cylinder",
            "scale" : [
                0.40030255913734436,
                0.41249167919158936,
                0.40030255913734436
            ],
            "translation" : [
                0,
                0.33185875415802,
                0
            ]
        },
        {
            "mesh" : 3,
            "name" : "Cube.001",
            "rotation" : [
                0,
                0.14360615611076355,
                0,
                0.9896349310874939
            ],
            "scale" : [
                0.05426759645342827,
                1.9936931133270264,
                1.38577401638031
            ],
            "translation" : [
                0.31809061765670776,
                3.115178346633911,
                -2.106274127960205
            ]
        },
        {
            "mesh" : 4,
            "name" : "pCube9",
            "rotation" : [
                -0.5662026405334473,
                0.42357364296913147,
                -0.42357370257377625,
                -0.5662025213241577
            ],
            "scale" : [
                0.04757443442940712,
                0.0451238639652729,
                0.0405796654522419
            ],
            "translation" : [
                0,
                3.135422706604004,
                -3.2766571044921875
            ]
        },
        {
            "mesh" : 5,
            "name" : "Text",
            "rotation" : [
                0.5661587119102478,
                -0.42363232374191284,
                0.42363235354423523,
                0.566158652305603
            ],
            "scale" : [
                1.1950730085372925,
                1.0183489322662354,
                1.1515077352523804
            ],
            "translation" : [
                0.12062656879425049,
                4.144338607788086,
                -2.7280032634735107
            ]
        }
    ],
    "materials" : [
        {
            "doubleSided" : true,
            "name" : "Material",
            "pbrMetallicRoughness" : {
                "baseColorTexture" : {
                    "index" : 0
                },
                "metallicFactor" : 0,
                "roughnessFactor" : 0.4000000059604645
            }
        },
        {
            "doubleSided" : true,
            "name" : "Material.001",
            "pbrMetallicRoughness" : {
                "baseColorTexture" : {
                    "index" : 1
                },
                "metallicFactor" : 0,
                "roughnessFactor" : 0.5
            }
        },
        {
            "doubleSided" : true,
            "name" : "Material.003",
            "normalTexture" : {
                "index" : 2
            },
            "pbrMetallicRoughness" : {
                "baseColorTexture" : {
                    "index" : 3
                },
                "metallicFactor" : 0,
                "roughnessFactor" : 0.5
            }
        },
        {
            "doubleSided" : true,
            "name" : "Material.002",
            "pbrMetallicRoughness" : {
                "baseColorTexture" : {
                    "index" : 4
                },
                "metallicFactor" : 0,
                "roughnessFactor" : 0.5
            }
        },
        {
            "doubleSided" : true,
            "name" : "Black",
            "pbrMetallicRoughness" : {
                "baseColorTexture" : {
                    "index" : 5
                },
                "metallicFactor" : 0,
                "roughnessFactor" : 0.5
            }
        }
    ],
    "meshes" : [
        {
            "name" : "Cube.001",
            "primitives" : [
                {
                    "attributes" : {
                        "POSITION" : 0,
                        "NORMAL" : 1,
                        "TEXCOORD_0" : 2
                    },
                    "indices" : 3,
                    "material" : 0
                },
                {
                    "attributes" : {
                        "POSITION" : 4,
                        "NORMAL" : 5,
                        "TEXCOORD_0" : 6
                    },
                    "indices" : 7,
                    "material" : 1
                }
            ]
        },
        {
            "name" : "Cone.001",
            "primitives" : [
                {
                    "attributes" : {
                        "POSITION" : 8,
                        "NORMAL" : 9,
                        "TEXCOORD_0" : 10
                    },
                    "indices" : 11,
                    "material" : 1
                },
                {
                    "attributes" : {
                        "POSITION" : 12,
                        "NORMAL" : 13,
                        "TEXCOORD_0" : 14
                    },
                    "indices" : 15,
                    "material" : 0
                }
            ]
        },
        {
            "name" : "Cylinder",
            "primitives" : [
                {
                    "attributes" : {
                        "POSITION" : 16,
                        "NORMAL" : 17,
                        "TEXCOORD_0" : 18
                    },
                    "indices" : 19,
                    "material" : 0
                },
                {
                    "attributes" : {
                        "POSITION" : 20,
                        "NORMAL" : 21,
                        "TEXCOORD_0" : 22
                    },
                    "indices" : 23,
                    "material" : 1
                }
            ]
        },
        {
            "name" : "Cube.002",
            "primitives" : [
                {
                    "attributes" : {
                        "POSITION" : 24,
                        "NORMAL" : 25,
                        "TEXCOORD_0" : 26
                    },
                    "indices" : 27,
                    "material" : 2
                }
            ]
        },
        {
            "name" : "Mesh.003",
            "primitives" : [
                {
                    "attributes" : {
                        "POSITION" : 28,
                        "NORMAL" : 29,
                        "TEXCOORD_0" : 30
                    },
                    "indices" : 31,
                    "material" : 3
                }
            ]
        },
        {
            "name" : "Text.001",
            "primitives" : [
                {
                    "attributes" : {
                        "POSITION" : 32,
                        "NORMAL" : 33,
                        "TEXCOORD_0" : 34
                    },
                    "indices" : 35,
                    "material" : 4
                }
            ]
        }
    ],
    "textures" : [
        {
            "sampler" : 0,
            "source" : 0
        },
        {
            "sampler" : 0,
            "source" : 1
        },
        {
            "sampler" : 0,
            "source" : 2
        },
        {
            "sampler" : 0,
            "source" : 2
        },
        {
            "sampler" : 0,
            "source" : 3
        },
        {
            "sampler" : 0,
            "source" : 4
        }
    ],
    "images" : [
        {
            "mimeType" : "image/jpeg",
            "name" : "concrete",
            "uri" : "concrete.jpg"
        },
        {
            "mimeType" : "image/jpeg",
            "name" : "gray_concrete",
            "uri" : "gray_concrete.jpg"
        },
        {
            "mimeType" : "image/jpeg",
            "name" : "canvas",
            "uri" : "canvas.jpg"
        },
        {
            "mimeType" : "image/png",
            "name" : "wood_dark",
            "uri" : "wood_dark.png"
        },
        {
            "mimeType" : "image/png",
            "name" : "Preto",
            "uri" : "Preto.png"
        }
    ],
    "accessors" : [
        {
            "bufferView" : 0,
            "componentType" : 5126,
            "count" : 21,
            "max" : [
                1.9994163513183594,
                1.5483404397964478,
                1.9753925800323486
            ],
            "min" : [
                -1.9994163513183594,
                -0.46449393033981323,
                -1.9753925800323486
            ],
            "type" : "VEC3"
        },
        {
            "bufferView" : 1,
            "componentType" : 5126,
            "count" : 21,
            "type" : "VEC3"
        },
        {
            "bufferView" : 2,
            "componentType" : 5126,
            "count" : 21,
            "type" : "VEC2"
        },
        {
            "bufferView" : 3,
            "componentType" : 5123,
            "count" : 39,
            "type" : "SCALAR"
        },
        {
            "bufferView" : 4,
            "componentType" : 5126,
            "count" : 37,
            "max" : [
                1.9994163513183594,
                1.5483404397964478,
                1.9753925800323486
            ],
            "min" : [
                -1.9994163513183594,
                -0.6811497211456299,
                -1.9753925800323486
            ],
            "type" : "VEC3"
        },
        {
            "bufferView" : 5,
            "componentType" : 5126,
            "count" : 37,
            "type" : "VEC3"
        },
        {
            "bufferView" : 6,
            "componentType" : 5126,
            "count" : 37,
            "type" : "VEC2"
        },
        {
            "bufferView" : 7,
            "componentType" : 5123,
            "count" : 51,
            "type" : "SCALAR"
        },
        {
            "bufferView" : 8,
            "componentType" : 5126,
            "count" : 193,
            "max" : [
                1.1236324310302734,
                0.683748722076416,
                1.1173471212387085
            ],
            "min" : [
                -1.1236324310302734,
                -0.9822200536727905,
                -1.1173471212387085
            ],
            "type" : "VEC3"
        },
        {
            "bufferView" : 9,
            "componentType" : 5126,
            "count" : 193,
            "type" : "VEC3"
        },
        {
            "bufferView" : 10,
            "componentType" : 5126,
            "count" : 193,
            "type" : "VEC2"
        },
        {
            "bufferView" : 11,
            "componentType" : 5123,
            "count" : 954,
            "type" : "SCALAR"
        },
        {
            "bufferView" : 12,
            "componentType" : 5126,
            "count" : 512,
            "max" : [
                0.09436750411987305,
                1.0405062437057495,
                0.0857221782207489
            ],
            "min" : [
                -0.09405970573425293,
                0.4661444127559662,
                -0.1046864464879036
            ],
            "type" : "VEC3"
        },
        {
            "bufferView" : 13,
            "componentType" : 5126,
            "count" : 512,
            "type" : "VEC3"
        },
        {
            "bufferView" : 14,
            "componentType" : 5126,
            "count" : 512,
            "type" : "VEC2"
        },
        {
            "bufferView" : 15,
            "componentType" : 5123,
            "count" : 2292,
            "type" : "SCALAR"
        },
        {
            "bufferView" : 16,
            "componentType" : 5126,
            "count" : 489,
            "max" : [
                0.8256559371948242,
                6.271966457366943,
                0.8256559371948242
            ],
            "min" : [
                -0.8256559371948242,
                1.8408808708190918,
                -0.8256559371948242
            ],
            "type" : "VEC3"
        },
        {
            "bufferView" : 17,
            "componentType" : 5126,
            "count" : 489,
            "type" : "VEC3"
        },
        {
            "bufferView" : 18,
            "componentType" : 5126,
            "count" : 489,
            "type" : "VEC2"
        },
        {
            "bufferView" : 19,
            "componentType" : 5123,
            "count" : 2052,
            "type" : "SCALAR"
        },
        {
            "bufferView" : 20,
            "componentType" : 5126,
            "count" : 205,
            "max" : [
                0.8256559371948242,
                5.305814743041992,
                0.8256559371948242
            ],
            "min" : [
                -0.8256559371948242,
                1.8408808708190918,
                -0.8256559371948242
            ],
            "type" : "VEC3"
        },
        {
            "bufferView" : 21,
            "componentType" : 5126,
            "count" : 205,
            "type" : "VEC3"
        },
        {
            "bufferView" : 22,
            "componentType" : 5126,
            "count" : 205,
            "type" : "VEC2"
        },
        {
            "bufferView" : 23,
            "componentType" : 5123,
            "count" : 720,
            "type" : "SCALAR"
        },
        {
            "bufferView" : 24,
            "componentType" : 5126,
            "count" : 24,
            "max" : [
                0.18682098388671875,
                0.6315023899078369,
                0.5157340168952942
            ],
            "min" : [
                -0.18682098388671875,
                -0.6315023899078369,
                -0.5157340168952942
            ],
            "type" : "VEC3"
        },
        {
            "bufferView" : 25,
            "componentType" : 5126,
            "count" : 24,
            "type" : "VEC3"
        },
        {
            "bufferView" : 26,
            "componentType" : 5126,
            "count" : 24,
            "type" : "VEC2"
        },
        {
            "bufferView" : 27,
            "componentType" : 5123,
            "count" : 36,
            "type" : "SCALAR"
        },
        {
            "bufferView" : 28,
            "componentType" : 5126,
            "count" : 232,
            "max" : [
                45.365386962890625,
                2.9853057861328125,
                35.689453125
            ],
            "min" : [
                5.214750289916992,
                1.9073486328125e-06,
                -35.689453125
            ],
            "type" : "VEC3"
        },
        {
            "bufferView" : 29,
            "componentType" : 5126,
            "count" : 232,
            "type" : "VEC3"
        },
        {
            "bufferView" : 30,
            "componentType" : 5126,
            "count" : 232,
            "type" : "VEC2"
        },
        {
            "bufferView" : 31,
            "componentType" : 5123,
            "count" : 444,
            "type" : "SCALAR"
        },
        {
            "bufferView" : 32,
            "componentType" : 5126,
            "count" : 691886,
            "max" : [
                1.1019396781921387,
                0.009999999776482582,
                1.7786662578582764
            ],
            "min" : [
                0.0008713618153706193,
                -0.009999999776482582,
                -0.07095324248075485
            ],
            "type" : "VEC3"
        },
        {
            "bufferView" : 33,
            "componentType" : 5126,
            "count" : 691886,
            "type" : "VEC3"
        },
        {
            "bufferView" : 34,
            "componentType" : 5126,
            "count" : 691886,
            "type" : "VEC2"
        },
        {
            "bufferView" : 35,
            "componentType" : 5125,
            "count" : 1267014,
            "type" : "SCALAR"
        }
    ],
    "bufferViews" : [
        {
            "buffer" : 0,
            "byteLength" : 252,
            "byteOffset" : 0
        },
        {
            "buffer" : 0,
            "byteLength" : 252,
            "byteOffset" : 252
        },
        {
            "buffer" : 0,
            "byteLength" : 168,
            "byteOffset" : 504
        },
        {
            "buffer" : 0,
            "byteLength" : 78,
            "byteOffset" : 672
        },
        {
            "buffer" : 0,
            "byteLength" : 444,
            "byteOffset" : 752
        },
        {
            "buffer" : 0,
            "byteLength" : 444,
            "byteOffset" : 1196
        },
        {
            "buffer" : 0,
            "byteLength" : 296,
            "byteOffset" : 1640
        },
        {
            "buffer" : 0,
            "byteLength" : 102,
            "byteOffset" : 1936
        },
        {
            "buffer" : 0,
            "byteLength" : 2316,
            "byteOffset" : 2040
        },
        {
            "buffer" : 0,
            "byteLength" : 2316,
            "byteOffset" : 4356
        },
        {
            "buffer" : 0,
            "byteLength" : 1544,
            "byteOffset" : 6672
        },
        {
            "buffer" : 0,
            "byteLength" : 1908,
            "byteOffset" : 8216
        },
        {
            "buffer" : 0,
            "byteLength" : 6144,
            "byteOffset" : 10124
        },
        {
            "buffer" : 0,
            "byteLength" : 6144,
            "byteOffset" : 16268
        },
        {
            "buffer" : 0,
            "byteLength" : 4096,
            "byteOffset" : 22412
        },
        {
            "buffer" : 0,
            "byteLength" : 4584,
            "byteOffset" : 26508
        },
        {
            "buffer" : 0,
            "byteLength" : 5868,
            "byteOffset" : 31092
        },
        {
            "buffer" : 0,
            "byteLength" : 5868,
            "byteOffset" : 36960
        },
        {
            "buffer" : 0,
            "byteLength" : 3912,
            "byteOffset" : 42828
        },
        {
            "buffer" : 0,
            "byteLength" : 4104,
            "byteOffset" : 46740
        },
        {
            "buffer" : 0,
            "byteLength" : 2460,
            "byteOffset" : 50844
        },
        {
            "buffer" : 0,
            "byteLength" : 2460,
            "byteOffset" : 53304
        },
        {
            "buffer" : 0,
            "byteLength" : 1640,
            "byteOffset" : 55764
        },
        {
            "buffer" : 0,
            "byteLength" : 1440,
            "byteOffset" : 57404
        },
        {
            "buffer" : 0,
            "byteLength" : 288,
            "byteOffset" : 58844
        },
        {
            "buffer" : 0,
            "byteLength" : 288,
            "byteOffset" : 59132
        },
        {
            "buffer" : 0,
            "byteLength" : 192,
            "byteOffset" : 59420
        },
        {
            "buffer" : 0,
            "byteLength" : 72,
            "byteOffset" : 59612
        },
        {
            "buffer" : 0,
            "byteLength" : 2784,
            "byteOffset" : 59684
        },
        {
            "buffer" : 0,
            "byteLength" : 2784,
            "byteOffset" : 62468
        },
        {
            "buffer" : 0,
            "byteLength" : 1856,
            "byteOffset" : 65252
        },
        {
            "buffer" : 0,
            "byteLength" : 888,
            "byteOffset" : 67108
        },
        {
            "buffer" : 0,
            "byteLength" : 8302632,
            "byteOffset" : 67996
        },
        {
            "buffer" : 0,
            "byteLength" : 8302632,
            "byteOffset" : 8370628
        },
        {
            "buffer" : 0,
            "byteLength" : 5535088,
            "byteOffset" : 16673260
        },
        {
            "buffer" : 0,
            "byteLength" : 5068056,
            "byteOffset" : 22208348
        }
    ],
    "samplers" : [
        {
            "magFilter" : 9729,
            "minFilter" : 9987
        }
    ],
    "buffers" : [
        {
            "byteLength" : 27276404,
            "uri" : "Chamine.bin"
        }
    ]
}
