{
    "asset" : {
        "generator" : "Khronos glTF Blender I/O v1.7.33",
        "version" : "2.0"
    },
    "scene" : 0,
    "scenes" : [
        {
            "name" : "Scene",
            "nodes" : [
                0,
                1,
                2,
                3,
                4
            ]
        }
    ],
    "nodes" : [
        {
            "mesh" : 0,
            "name" : "TreasureCoins",
            "rotation" : [
                0,
                0.7071068286895752,
                0,
                0.7071068286895752
            ],
            "translation" : [
                -0.04151490703225136,
                0.13000932335853577,
                0
            ]
        },
        {
            "mesh" : 1,
            "name" : "TreasureChest",
            "rotation" : [
                -0.5,
                -0.5,
                -0.5,
                0.5
            ]
        },
        {
            "mesh" : 2,
            "name" : "Cube",
            "rotation" : [
                0,
                0.14360615611076355,
                0,
                0.9896349310874939
            ],
            "scale" : [
                0.05426759645342827,
                1.9936931133270264,
                1.38577401638031
            ],
            "translation" : [
                0.31809061765670776,
                3.115178346633911,
                -2.106274127960205
            ]
        },
        {
            "mesh" : 3,
            "name" : "pCube9",
            "rotation" : [
                -0.5662026405334473,
                0.42357364296913147,
                -0.42357370257377625,
                -0.5662025213241577
            ],
            "scale" : [
                0.04757443442940712,
                0.0451238639652729,
                0.0405796654522419
            ],
            "translation" : [
                0,
                3.135422706604004,
                -3.2766571044921875
            ]
        },
        {
            "mesh" : 4,
            "name" : "Text",
            "rotation" : [
                0.5661587119102478,
                -0.42363232374191284,
                0.42363235354423523,
                0.566158652305603
            ],
            "scale" : [
                1.1950730085372925,
                1.0183489322662354,
                1.1515077352523804
            ],
            "translation" : [
                0.12062656879425049,
                4.171459197998047,
                -2.7280032634735107
            ]
        }
    ],
    "materials" : [
        {
            "doubleSided" : true,
            "name" : "TreasureCoins",
            "pbrMetallicRoughness" : {
                "baseColorTexture" : {
                    "index" : 0
                },
                "roughnessFactor" : 0.858578622341156
            }
        },
        {
            "doubleSided" : true,
            "name" : "Material.001",
            "pbrMetallicRoughness" : {
                "baseColorTexture" : {
                    "index" : 1
                },
                "metallicFactor" : 0,
                "roughnessFactor" : 0.5
            }
        },
        {
            "doubleSided" : true,
            "name" : "Material.003",
            "normalTexture" : {
                "index" : 2
            },
            "pbrMetallicRoughness" : {
                "baseColorTexture" : {
                    "index" : 3
                },
                "metallicFactor" : 0,
                "roughnessFactor" : 0.5
            }
        },
        {
            "doubleSided" : true,
            "name" : "Material.002",
            "pbrMetallicRoughness" : {
                "baseColorTexture" : {
                    "index" : 4
                },
                "metallicFactor" : 0,
                "roughnessFactor" : 0.5
            }
        },
        {
            "doubleSided" : true,
            "name" : "Black",
            "pbrMetallicRoughness" : {
                "baseColorTexture" : {
                    "index" : 5
                },
                "metallicFactor" : 0,
                "roughnessFactor" : 0.5
            }
        }
    ],
    "meshes" : [
        {
            "name" : "Mesh.001",
            "primitives" : [
                {
                    "attributes" : {
                        "POSITION" : 0,
                        "NORMAL" : 1,
                        "TEXCOORD_0" : 2,
                        "TEXCOORD_1" : 3
                    },
                    "indices" : 4,
                    "material" : 0
                }
            ]
        },
        {
            "name" : "Mesh",
            "primitives" : [
                {
                    "attributes" : {
                        "POSITION" : 5,
                        "NORMAL" : 6,
                        "TEXCOORD_0" : 7,
                        "TEXCOORD_1" : 8
                    },
                    "indices" : 9,
                    "material" : 1
                }
            ]
        },
        {
            "name" : "Cube",
            "primitives" : [
                {
                    "attributes" : {
                        "POSITION" : 10,
                        "NORMAL" : 11,
                        "TEXCOORD_0" : 12
                    },
                    "indices" : 13,
                    "material" : 2
                }
            ]
        },
        {
            "name" : "Mesh.003",
            "primitives" : [
                {
                    "attributes" : {
                        "POSITION" : 14,
                        "NORMAL" : 15,
                        "TEXCOORD_0" : 16
                    },
                    "indices" : 17,
                    "material" : 3
                }
            ]
        },
        {
            "name" : "Text.001",
            "primitives" : [
                {
                    "attributes" : {
                        "POSITION" : 18,
                        "NORMAL" : 19,
                        "TEXCOORD_0" : 20
                    },
                    "indices" : 21,
                    "material" : 4
                }
            ]
        }
    ],
    "textures" : [
        {
            "sampler" : 0,
            "source" : 0
        },
        {
            "sampler" : 0,
            "source" : 1
        },
        {
            "sampler" : 0,
            "source" : 2
        },
        {
            "sampler" : 0,
            "source" : 2
        },
        {
            "sampler" : 0,
            "source" : 3
        },
        {
            "sampler" : 0,
            "source" : 4
        }
    ],
    "images" : [
        {
            "mimeType" : "image/png",
            "name" : "Coins",
            "uri" : "Coins.png"
        },
        {
            "mimeType" : "image/png",
            "name" : "TreasureChest_WoodGold",
            "uri" : "TreasureChest_WoodGold.png"
        },
        {
            "mimeType" : "image/jpeg",
            "name" : "canvas",
            "uri" : "canvas.jpg"
        },
        {
            "mimeType" : "image/png",
            "name" : "wood_dark",
            "uri" : "wood_dark.png"
        },
        {
            "mimeType" : "image/png",
            "name" : "Preto",
            "uri" : "Preto.png"
        }
    ],
    "accessors" : [
        {
            "bufferView" : 0,
            "componentType" : 5126,
            "count" : 8,
            "max" : [
                0.5518577098846436,
                0.5313771963119507,
                0.4306091070175171
            ],
            "min" : [
                -0.5518585443496704,
                0.4437781870365143,
                -0.37146151065826416
            ],
            "type" : "VEC3"
        },
        {
            "bufferView" : 1,
            "componentType" : 5126,
            "count" : 8,
            "type" : "VEC3"
        },
        {
            "bufferView" : 2,
            "componentType" : 5126,
            "count" : 8,
            "type" : "VEC2"
        },
        {
            "bufferView" : 3,
            "componentType" : 5126,
            "count" : 8,
            "type" : "VEC2"
        },
        {
            "bufferView" : 4,
            "componentType" : 5123,
            "count" : 30,
            "type" : "SCALAR"
        },
        {
            "bufferView" : 5,
            "componentType" : 5126,
            "count" : 182,
            "max" : [
                0.700825572013855,
                0.6145080924034119,
                1.463465929031372
            ],
            "min" : [
                -0.7008259296417236,
                -0.5768589377403259,
                0.00445603160187602
            ],
            "type" : "VEC3"
        },
        {
            "bufferView" : 6,
            "componentType" : 5126,
            "count" : 182,
            "type" : "VEC3"
        },
        {
            "bufferView" : 7,
            "componentType" : 5126,
            "count" : 182,
            "type" : "VEC2"
        },
        {
            "bufferView" : 8,
            "componentType" : 5126,
            "count" : 182,
            "type" : "VEC2"
        },
        {
            "bufferView" : 9,
            "componentType" : 5123,
            "count" : 354,
            "type" : "SCALAR"
        },
        {
            "bufferView" : 10,
            "componentType" : 5126,
            "count" : 24,
            "max" : [
                0.18682098388671875,
                0.6315023899078369,
                0.5157340168952942
            ],
            "min" : [
                -0.18682098388671875,
                -0.6315023899078369,
                -0.5157340168952942
            ],
            "type" : "VEC3"
        },
        {
            "bufferView" : 11,
            "componentType" : 5126,
            "count" : 24,
            "type" : "VEC3"
        },
        {
            "bufferView" : 12,
            "componentType" : 5126,
            "count" : 24,
            "type" : "VEC2"
        },
        {
            "bufferView" : 13,
            "componentType" : 5123,
            "count" : 36,
            "type" : "SCALAR"
        },
        {
            "bufferView" : 14,
            "componentType" : 5126,
            "count" : 232,
            "max" : [
                45.365386962890625,
                2.9853057861328125,
                35.689453125
            ],
            "min" : [
                5.214750289916992,
                1.9073486328125e-06,
                -35.689453125
            ],
            "type" : "VEC3"
        },
        {
            "bufferView" : 15,
            "componentType" : 5126,
            "count" : 232,
            "type" : "VEC3"
        },
        {
            "bufferView" : 16,
            "componentType" : 5126,
            "count" : 232,
            "type" : "VEC2"
        },
        {
            "bufferView" : 17,
            "componentType" : 5123,
            "count" : 444,
            "type" : "SCALAR"
        },
        {
            "bufferView" : 18,
            "componentType" : 5126,
            "count" : 933176,
            "max" : [
                1.0902671813964844,
                0.009999999776482582,
                1.9079850912094116
            ],
            "min" : [
                0.009732827544212341,
                -0.009999999776482582,
                -0.06580975651741028
            ],
            "type" : "VEC3"
        },
        {
            "bufferView" : 19,
            "componentType" : 5126,
            "count" : 933176,
            "type" : "VEC3"
        },
        {
            "bufferView" : 20,
            "componentType" : 5126,
            "count" : 933176,
            "type" : "VEC2"
        },
        {
            "bufferView" : 21,
            "componentType" : 5125,
            "count" : 1698384,
            "type" : "SCALAR"
        }
    ],
    "bufferViews" : [
        {
            "buffer" : 0,
            "byteLength" : 96,
            "byteOffset" : 0
        },
        {
            "buffer" : 0,
            "byteLength" : 96,
            "byteOffset" : 96
        },
        {
            "buffer" : 0,
            "byteLength" : 64,
            "byteOffset" : 192
        },
        {
            "buffer" : 0,
            "byteLength" : 64,
            "byteOffset" : 256
        },
        {
            "buffer" : 0,
            "byteLength" : 60,
            "byteOffset" : 320
        },
        {
            "buffer" : 0,
            "byteLength" : 2184,
            "byteOffset" : 380
        },
        {
            "buffer" : 0,
            "byteLength" : 2184,
            "byteOffset" : 2564
        },
        {
            "buffer" : 0,
            "byteLength" : 1456,
            "byteOffset" : 4748
        },
        {
            "buffer" : 0,
            "byteLength" : 1456,
            "byteOffset" : 6204
        },
        {
            "buffer" : 0,
            "byteLength" : 708,
            "byteOffset" : 7660
        },
        {
            "buffer" : 0,
            "byteLength" : 288,
            "byteOffset" : 8368
        },
        {
            "buffer" : 0,
            "byteLength" : 288,
            "byteOffset" : 8656
        },
        {
            "buffer" : 0,
            "byteLength" : 192,
            "byteOffset" : 8944
        },
        {
            "buffer" : 0,
            "byteLength" : 72,
            "byteOffset" : 9136
        },
        {
            "buffer" : 0,
            "byteLength" : 2784,
            "byteOffset" : 9208
        },
        {
            "buffer" : 0,
            "byteLength" : 2784,
            "byteOffset" : 11992
        },
        {
            "buffer" : 0,
            "byteLength" : 1856,
            "byteOffset" : 14776
        },
        {
            "buffer" : 0,
            "byteLength" : 888,
            "byteOffset" : 16632
        },
        {
            "buffer" : 0,
            "byteLength" : 11198112,
            "byteOffset" : 17520
        },
        {
            "buffer" : 0,
            "byteLength" : 11198112,
            "byteOffset" : 11215632
        },
        {
            "buffer" : 0,
            "byteLength" : 7465408,
            "byteOffset" : 22413744
        },
        {
            "buffer" : 0,
            "byteLength" : 6793536,
            "byteOffset" : 29879152
        }
    ],
    "samplers" : [
        {
            "magFilter" : 9729,
            "minFilter" : 9987
        }
    ],
    "buffers" : [
        {
            "byteLength" : 36672688,
            "uri" : "Tesouro.bin"
        }
    ]
}
