{
    "asset" : {
        "generator" : "Khronos glTF Blender I/O v1.7.33",
        "version" : "2.0"
    },
    "scene" : 0,
    "scenes" : [
        {
            "name" : "Scene",
            "nodes" : [
                3
            ]
        }
    ],
    "nodes" : [
        {
            "name" : "Bone002",
            "rotation" : [
                4.005678277962943e-08,
                -4.924337986267346e-07,
                -0.7071068286895752,
                0.7071067094802856
            ],
            "scale" : [
                0.9999998807907104,
                0.9999999403953552,
                0.9999999403953552
            ],
            "translation" : [
                0.6085050702095032,
                -3.5762798233918147e-07,
                3.355630440182722e-07
            ]
        },
        {
            "children" : [
                0
            ],
            "name" : "Bone001",
            "rotation" : [
                -0.7071068286895752,
                3.456069350704638e-07,
                0.7071068286895752,
                1.5734920566501387e-07
            ],
            "scale" : [
                0.9999998807907104,
                0.9999997615814209,
                0.9999998807907104
            ],
            "translation" : [
                6.556511493727157e-07,
                -0.5177116990089417,
                -0.010524667799472809
            ]
        },
        {
            "children" : [
                1
            ],
            "name" : "Armature"
        },
        {
            "children" : [
                2
            ],
            "name" : "Tesouro",
            "rotation" : [
                0.7071068286895752,
                0,
                0,
                0.7071068286895752
            ]
        }
    ],
    "animations" : [
        {
            "channels" : [
                {
                    "sampler" : 0,
                    "target" : {
                        "node" : 1,
                        "path" : "translation"
                    }
                },
                {
                    "sampler" : 1,
                    "target" : {
                        "node" : 1,
                        "path" : "rotation"
                    }
                },
                {
                    "sampler" : 2,
                    "target" : {
                        "node" : 1,
                        "path" : "scale"
                    }
                },
                {
                    "sampler" : 3,
                    "target" : {
                        "node" : 0,
                        "path" : "translation"
                    }
                },
                {
                    "sampler" : 4,
                    "target" : {
                        "node" : 0,
                        "path" : "rotation"
                    }
                },
                {
                    "sampler" : 5,
                    "target" : {
                        "node" : 0,
                        "path" : "scale"
                    }
                }
            ],
            "name" : "Armature|Take 001|BaseLayer",
            "samplers" : [
                {
                    "input" : 0,
                    "interpolation" : "LINEAR",
                    "output" : 1
                },
                {
                    "input" : 2,
                    "interpolation" : "LINEAR",
                    "output" : 3
                },
                {
                    "input" : 0,
                    "interpolation" : "LINEAR",
                    "output" : 4
                },
                {
                    "input" : 0,
                    "interpolation" : "LINEAR",
                    "output" : 5
                },
                {
                    "input" : 2,
                    "interpolation" : "LINEAR",
                    "output" : 6
                },
                {
                    "input" : 0,
                    "interpolation" : "LINEAR",
                    "output" : 7
                }
            ]
        }
    ],
    "accessors" : [
        {
            "bufferView" : 0,
            "componentType" : 5126,
            "count" : 2,
            "max" : [
                2.3666666666666667
            ],
            "min" : [
                0.03333333333333333
            ],
            "type" : "SCALAR"
        },
        {
            "bufferView" : 1,
            "componentType" : 5126,
            "count" : 2,
            "type" : "VEC3"
        },
        {
            "bufferView" : 2,
            "componentType" : 5126,
            "count" : 71,
            "max" : [
                2.3666666666666667
            ],
            "min" : [
                0.03333333333333333
            ],
            "type" : "SCALAR"
        },
        {
            "bufferView" : 3,
            "componentType" : 5126,
            "count" : 71,
            "type" : "VEC4"
        },
        {
            "bufferView" : 4,
            "componentType" : 5126,
            "count" : 2,
            "type" : "VEC3"
        },
        {
            "bufferView" : 5,
            "componentType" : 5126,
            "count" : 2,
            "type" : "VEC3"
        },
        {
            "bufferView" : 6,
            "componentType" : 5126,
            "count" : 71,
            "type" : "VEC4"
        },
        {
            "bufferView" : 7,
            "componentType" : 5126,
            "count" : 2,
            "type" : "VEC3"
        }
    ],
    "bufferViews" : [
        {
            "buffer" : 0,
            "byteLength" : 8,
            "byteOffset" : 0
        },
        {
            "buffer" : 0,
            "byteLength" : 24,
            "byteOffset" : 8
        },
        {
            "buffer" : 0,
            "byteLength" : 284,
            "byteOffset" : 32
        },
        {
            "buffer" : 0,
            "byteLength" : 1136,
            "byteOffset" : 316
        },
        {
            "buffer" : 0,
            "byteLength" : 24,
            "byteOffset" : 1452
        },
        {
            "buffer" : 0,
            "byteLength" : 24,
            "byteOffset" : 1476
        },
        {
            "buffer" : 0,
            "byteLength" : 1136,
            "byteOffset" : 1500
        },
        {
            "buffer" : 0,
            "byteLength" : 24,
            "byteOffset" : 2636
        }
    ],
    "buffers" : [
        {
            "byteLength" : 2660,
            "uri" : "Tesouro.bin"
        }
    ]
}
