{
    "asset" : {
        "generator" : "Khronos glTF Blender I/O v1.7.33",
        "version" : "2.0"
    },
    "scene" : 0,
    "scenes" : [
        {
            "name" : "Scene",
            "nodes" : [
                4
            ]
        }
    ],
    "nodes" : [
        {
            "name" : "Bone002",
            "rotation" : [
                4.005678277962943e-08,
                -4.924337986267346e-07,
                -0.7071068286895752,
                0.7071067094802856
            ],
            "scale" : [
                0.9999998807907104,
                0.9999999403953552,
                0.9999999403953552
            ],
            "translation" : [
                0.6085050702095032,
                -3.5762798233918147e-07,
                3.355630440182722e-07
            ]
        },
        {
            "mesh" : 1,
            "name" : "TreasureCoins",
            "rotation" : [
                0.5058396458625793,
                0.4940904676914215,
                -0.5058414340019226,
                0.4940904378890991
            ],
            "translation" : [
                -0.010524692013859749,
                -0.519849370389272,
                7.464549298674683e-07
            ]
        },
        {
            "children" : [
                0,
                1
            ],
            "name" : "Bone001",
            "rotation" : [
                -0.7071068286895752,
                3.456069350704638e-07,
                0.7071068286895752,
                1.5734920566501387e-07
            ],
            "scale" : [
                0.9999998807907104,
                0.9999997615814209,
                0.9999998807907104
            ],
            "translation" : [
                6.556511493727157e-07,
                -0.5177116990089417,
                -0.010524667799472809
            ]
        },
        {
            "mesh" : 0,
            "name" : "TreasureChest",
            "skin" : 0
        },
        {
            "children" : [
                3,
                2
            ],
            "name" : "Armature",
            "rotation" : [
                -0.5000000596046448,
                -0.5,
                0.4999999701976776,
                -0.5
            ]
        }
    ],
    "animations" : [
        {
            "channels" : [
                {
                    "sampler" : 0,
                    "target" : {
                        "node" : 2,
                        "path" : "translation"
                    }
                },
                {
                    "sampler" : 1,
                    "target" : {
                        "node" : 2,
                        "path" : "rotation"
                    }
                },
                {
                    "sampler" : 2,
                    "target" : {
                        "node" : 2,
                        "path" : "scale"
                    }
                },
                {
                    "sampler" : 3,
                    "target" : {
                        "node" : 0,
                        "path" : "translation"
                    }
                },
                {
                    "sampler" : 4,
                    "target" : {
                        "node" : 0,
                        "path" : "rotation"
                    }
                },
                {
                    "sampler" : 5,
                    "target" : {
                        "node" : 0,
                        "path" : "scale"
                    }
                }
            ],
            "name" : "Armature|Take 001|BaseLayer",
            "samplers" : [
                {
                    "input" : 13,
                    "interpolation" : "LINEAR",
                    "output" : 14
                },
                {
                    "input" : 15,
                    "interpolation" : "LINEAR",
                    "output" : 16
                },
                {
                    "input" : 13,
                    "interpolation" : "LINEAR",
                    "output" : 17
                },
                {
                    "input" : 13,
                    "interpolation" : "LINEAR",
                    "output" : 18
                },
                {
                    "input" : 15,
                    "interpolation" : "LINEAR",
                    "output" : 19
                },
                {
                    "input" : 13,
                    "interpolation" : "LINEAR",
                    "output" : 20
                }
            ]
        }
    ],
    "materials" : [
        {
            "doubleSided" : true,
            "name" : "Material.001",
            "pbrMetallicRoughness" : {
                "baseColorTexture" : {
                    "index" : 0
                },
                "metallicFactor" : 0,
                "roughnessFactor" : 0.5
            }
        },
        {
            "doubleSided" : true,
            "name" : "TreasureCoins",
            "pbrMetallicRoughness" : {
                "baseColorTexture" : {
                    "index" : 1
                },
                "roughnessFactor" : 0.858578622341156
            }
        }
    ],
    "meshes" : [
        {
            "name" : "Mesh",
            "primitives" : [
                {
                    "attributes" : {
                        "POSITION" : 0,
                        "NORMAL" : 1,
                        "TEXCOORD_0" : 2,
                        "TEXCOORD_1" : 3,
                        "JOINTS_0" : 4,
                        "WEIGHTS_0" : 5
                    },
                    "indices" : 6,
                    "material" : 0
                }
            ]
        },
        {
            "name" : "Mesh.001",
            "primitives" : [
                {
                    "attributes" : {
                        "POSITION" : 8,
                        "NORMAL" : 9,
                        "TEXCOORD_0" : 10,
                        "TEXCOORD_1" : 11
                    },
                    "indices" : 12,
                    "material" : 1
                }
            ]
        }
    ],
    "textures" : [
        {
            "sampler" : 0,
            "source" : 0
        },
        {
            "sampler" : 0,
            "source" : 1
        }
    ],
    "images" : [
        {
            "mimeType" : "image/png",
            "name" : "TreasureChest_WoodGold",
            "uri" : "TreasureChest_WoodGold.png"
        },
        {
            "mimeType" : "image/png",
            "name" : "Coins",
            "uri" : "Coins.png"
        }
    ],
    "skins" : [
        {
            "inverseBindMatrices" : 7,
            "joints" : [
                2,
                0
            ],
            "name" : "Armature"
        }
    ],
    "accessors" : [
        {
            "bufferView" : 0,
            "componentType" : 5126,
            "count" : 182,
            "max" : [
                0.5768594145774841,
                1.187340497970581,
                0.7008256912231445
            ],
            "min" : [
                -0.5177116990089417,
                0.004455884452909231,
                -0.7008253931999207
            ],
            "type" : "VEC3"
        },
        {
            "bufferView" : 1,
            "componentType" : 5126,
            "count" : 182,
            "type" : "VEC3"
        },
        {
            "bufferView" : 2,
            "componentType" : 5126,
            "count" : 182,
            "type" : "VEC2"
        },
        {
            "bufferView" : 3,
            "componentType" : 5126,
            "count" : 182,
            "type" : "VEC2"
        },
        {
            "bufferView" : 4,
            "componentType" : 5121,
            "count" : 182,
            "type" : "VEC4"
        },
        {
            "bufferView" : 5,
            "componentType" : 5126,
            "count" : 182,
            "type" : "VEC4"
        },
        {
            "bufferView" : 6,
            "componentType" : 5123,
            "count" : 354,
            "type" : "SCALAR"
        },
        {
            "bufferView" : 7,
            "componentType" : 5126,
            "count" : 2,
            "type" : "MAT4"
        },
        {
            "bufferView" : 8,
            "componentType" : 5126,
            "count" : 8,
            "max" : [
                0.5518577098846436,
                0.5313771963119507,
                0.4306091070175171
            ],
            "min" : [
                -0.5518585443496704,
                0.4437781870365143,
                -0.37146151065826416
            ],
            "type" : "VEC3"
        },
        {
            "bufferView" : 9,
            "componentType" : 5126,
            "count" : 8,
            "type" : "VEC3"
        },
        {
            "bufferView" : 10,
            "componentType" : 5126,
            "count" : 8,
            "type" : "VEC2"
        },
        {
            "bufferView" : 11,
            "componentType" : 5126,
            "count" : 8,
            "type" : "VEC2"
        },
        {
            "bufferView" : 12,
            "componentType" : 5123,
            "count" : 30,
            "type" : "SCALAR"
        },
        {
            "bufferView" : 13,
            "componentType" : 5126,
            "count" : 2,
            "max" : [
                2.3666666666666667
            ],
            "min" : [
                0.03333333333333333
            ],
            "type" : "SCALAR"
        },
        {
            "bufferView" : 14,
            "componentType" : 5126,
            "count" : 2,
            "type" : "VEC3"
        },
        {
            "bufferView" : 15,
            "componentType" : 5126,
            "count" : 71,
            "max" : [
                2.3666666666666667
            ],
            "min" : [
                0.03333333333333333
            ],
            "type" : "SCALAR"
        },
        {
            "bufferView" : 16,
            "componentType" : 5126,
            "count" : 71,
            "type" : "VEC4"
        },
        {
            "bufferView" : 17,
            "componentType" : 5126,
            "count" : 2,
            "type" : "VEC3"
        },
        {
            "bufferView" : 18,
            "componentType" : 5126,
            "count" : 2,
            "type" : "VEC3"
        },
        {
            "bufferView" : 19,
            "componentType" : 5126,
            "count" : 71,
            "type" : "VEC4"
        },
        {
            "bufferView" : 20,
            "componentType" : 5126,
            "count" : 2,
            "type" : "VEC3"
        }
    ],
    "bufferViews" : [
        {
            "buffer" : 0,
            "byteLength" : 2184,
            "byteOffset" : 0
        },
        {
            "buffer" : 0,
            "byteLength" : 2184,
            "byteOffset" : 2184
        },
        {
            "buffer" : 0,
            "byteLength" : 1456,
            "byteOffset" : 4368
        },
        {
            "buffer" : 0,
            "byteLength" : 1456,
            "byteOffset" : 5824
        },
        {
            "buffer" : 0,
            "byteLength" : 728,
            "byteOffset" : 7280
        },
        {
            "buffer" : 0,
            "byteLength" : 2912,
            "byteOffset" : 8008
        },
        {
            "buffer" : 0,
            "byteLength" : 708,
            "byteOffset" : 10920
        },
        {
            "buffer" : 0,
            "byteLength" : 128,
            "byteOffset" : 11628
        },
        {
            "buffer" : 0,
            "byteLength" : 96,
            "byteOffset" : 11756
        },
        {
            "buffer" : 0,
            "byteLength" : 96,
            "byteOffset" : 11852
        },
        {
            "buffer" : 0,
            "byteLength" : 64,
            "byteOffset" : 11948
        },
        {
            "buffer" : 0,
            "byteLength" : 64,
            "byteOffset" : 12012
        },
        {
            "buffer" : 0,
            "byteLength" : 60,
            "byteOffset" : 12076
        },
        {
            "buffer" : 0,
            "byteLength" : 8,
            "byteOffset" : 12136
        },
        {
            "buffer" : 0,
            "byteLength" : 24,
            "byteOffset" : 12144
        },
        {
            "buffer" : 0,
            "byteLength" : 284,
            "byteOffset" : 12168
        },
        {
            "buffer" : 0,
            "byteLength" : 1136,
            "byteOffset" : 12452
        },
        {
            "buffer" : 0,
            "byteLength" : 24,
            "byteOffset" : 13588
        },
        {
            "buffer" : 0,
            "byteLength" : 24,
            "byteOffset" : 13612
        },
        {
            "buffer" : 0,
            "byteLength" : 1136,
            "byteOffset" : 13636
        },
        {
            "buffer" : 0,
            "byteLength" : 24,
            "byteOffset" : 14772
        }
    ],
    "samplers" : [
        {
            "magFilter" : 9729,
            "minFilter" : 9987
        }
    ],
    "buffers" : [
        {
            "byteLength" : 14796,
            "uri" : "Tesouro.bin"
        }
    ]
}
