{
    "asset" : {
        "generator" : "Khronos glTF Blender I/O v1.7.33",
        "version" : "2.0"
    },
    "scene" : 0,
    "scenes" : [
        {
            "name" : "Scene",
            "nodes" : [
                0,
                5
            ]
        }
    ],
    "nodes" : [
        {
            "mesh" : 0,
            "name" : "ShadowPlane"
        },
        {
            "name" : "Bone002",
            "rotation" : [
                4.005678277962943e-08,
                -4.924337986267346e-07,
                -0.7071068286895752,
                0.7071067094802856
            ],
            "scale" : [
                0.9999998807907104,
                0.9999999403953552,
                0.9999999403953552
            ],
            "translation" : [
                0.6085050702095032,
                -3.5762798233918147e-07,
                3.355630440182722e-07
            ]
        },
        {
            "mesh" : 2,
            "name" : "TreasureCoins",
            "rotation" : [
                0.5058396458625793,
                0.4940904676914215,
                -0.5058414340019226,
                0.4940904378890991
            ],
            "translation" : [
                -0.010524692945182323,
                -0.519849370389272,
                7.464549298674683e-07
            ]
        },
        {
            "children" : [
                1,
                2
            ],
            "name" : "Bone001",
            "rotation" : [
                -0.7071068286895752,
                3.456069350704638e-07,
                0.7071068286895752,
                1.5734920566501387e-07
            ],
            "scale" : [
                0.9999998807907104,
                0.9999997615814209,
                0.9999998807907104
            ],
            "translation" : [
                6.556511493727157e-07,
                -0.5177116990089417,
                -0.010524667799472809
            ]
        },
        {
            "mesh" : 1,
            "name" : "TreasureChest",
            "skin" : 0
        },
        {
            "children" : [
                4,
                3
            ],
            "name" : "Armature",
            "rotation" : [
                0.5,
                -0.4999999701976776,
                0.5000000596046448,
                0.4999999403953552
            ]
        }
    ],
    "animations" : [
        {
            "channels" : [
                {
                    "sampler" : 0,
                    "target" : {
                        "node" : 0,
                        "path" : "translation"
                    }
                },
                {
                    "sampler" : 1,
                    "target" : {
                        "node" : 0,
                        "path" : "rotation"
                    }
                },
                {
                    "sampler" : 2,
                    "target" : {
                        "node" : 0,
                        "path" : "scale"
                    }
                }
            ],
            "name" : "ShadowPlane|Take 001|BaseLayer",
            "samplers" : [
                {
                    "input" : 17,
                    "interpolation" : "STEP",
                    "output" : 18
                },
                {
                    "input" : 17,
                    "interpolation" : "STEP",
                    "output" : 19
                },
                {
                    "input" : 17,
                    "interpolation" : "STEP",
                    "output" : 20
                }
            ]
        },
        {
            "channels" : [
                {
                    "sampler" : 0,
                    "target" : {
                        "node" : 3,
                        "path" : "translation"
                    }
                },
                {
                    "sampler" : 1,
                    "target" : {
                        "node" : 3,
                        "path" : "rotation"
                    }
                },
                {
                    "sampler" : 2,
                    "target" : {
                        "node" : 3,
                        "path" : "scale"
                    }
                },
                {
                    "sampler" : 3,
                    "target" : {
                        "node" : 1,
                        "path" : "translation"
                    }
                },
                {
                    "sampler" : 4,
                    "target" : {
                        "node" : 1,
                        "path" : "rotation"
                    }
                },
                {
                    "sampler" : 5,
                    "target" : {
                        "node" : 1,
                        "path" : "scale"
                    }
                }
            ],
            "name" : "Armature|Take 001|BaseLayer",
            "samplers" : [
                {
                    "input" : 21,
                    "interpolation" : "LINEAR",
                    "output" : 22
                },
                {
                    "input" : 23,
                    "interpolation" : "LINEAR",
                    "output" : 24
                },
                {
                    "input" : 21,
                    "interpolation" : "LINEAR",
                    "output" : 25
                },
                {
                    "input" : 21,
                    "interpolation" : "LINEAR",
                    "output" : 26
                },
                {
                    "input" : 23,
                    "interpolation" : "LINEAR",
                    "output" : 27
                },
                {
                    "input" : 21,
                    "interpolation" : "LINEAR",
                    "output" : 28
                }
            ]
        }
    ],
    "materials" : [
        {
            "alphaMode" : "BLEND",
            "doubleSided" : true,
            "name" : "ShadowPlane",
            "pbrMetallicRoughness" : {
                "baseColorTexture" : {
                    "index" : 0
                },
                "roughnessFactor" : 0.858578622341156
            }
        },
        {
            "doubleSided" : true,
            "name" : "Material.001",
            "pbrMetallicRoughness" : {
                "baseColorTexture" : {
                    "index" : 1
                },
                "metallicFactor" : 0,
                "roughnessFactor" : 0.5
            }
        },
        {
            "doubleSided" : true,
            "name" : "TreasureCoins",
            "pbrMetallicRoughness" : {
                "baseColorTexture" : {
                    "index" : 2
                },
                "roughnessFactor" : 0.858578622341156
            }
        }
    ],
    "meshes" : [
        {
            "name" : "Mesh.003",
            "primitives" : [
                {
                    "attributes" : {
                        "POSITION" : 0,
                        "NORMAL" : 1,
                        "TEXCOORD_0" : 2
                    },
                    "indices" : 3,
                    "material" : 0
                }
            ]
        },
        {
            "name" : "Mesh",
            "primitives" : [
                {
                    "attributes" : {
                        "POSITION" : 4,
                        "NORMAL" : 5,
                        "TEXCOORD_0" : 6,
                        "TEXCOORD_1" : 7,
                        "JOINTS_0" : 8,
                        "WEIGHTS_0" : 9
                    },
                    "indices" : 10,
                    "material" : 1
                }
            ]
        },
        {
            "name" : "Mesh.001",
            "primitives" : [
                {
                    "attributes" : {
                        "POSITION" : 12,
                        "NORMAL" : 13,
                        "TEXCOORD_0" : 14,
                        "TEXCOORD_1" : 15
                    },
                    "indices" : 16,
                    "material" : 2
                }
            ]
        }
    ],
    "textures" : [
        {
            "sampler" : 0,
            "source" : 0
        },
        {
            "sampler" : 0,
            "source" : 1
        },
        {
            "sampler" : 0,
            "source" : 2
        }
    ],
    "images" : [
        {
            "mimeType" : "image/png",
            "name" : "Map #1-Map #1",
            "uri" : "Map%201-Map%201.png"
        },
        {
            "mimeType" : "image/png",
            "name" : "TreasureChest_WoodGold",
            "uri" : "TreasureChest_WoodGold.png"
        },
        {
            "mimeType" : "image/png",
            "name" : "Coins",
            "uri" : "Coins.png"
        }
    ],
    "skins" : [
        {
            "inverseBindMatrices" : 11,
            "joints" : [
                3,
                1
            ],
            "name" : "Armature"
        }
    ],
    "accessors" : [
        {
            "bufferView" : 0,
            "componentType" : 5126,
            "count" : 4,
            "max" : [
                1.03607177734375,
                0.009999999776482582,
                0.853992223739624
            ],
            "min" : [
                -1.03607177734375,
                0.009999999776482582,
                -0.853992223739624
            ],
            "type" : "VEC3"
        },
        {
            "bufferView" : 1,
            "componentType" : 5126,
            "count" : 4,
            "type" : "VEC3"
        },
        {
            "bufferView" : 2,
            "componentType" : 5126,
            "count" : 4,
            "type" : "VEC2"
        },
        {
            "bufferView" : 3,
            "componentType" : 5123,
            "count" : 6,
            "type" : "SCALAR"
        },
        {
            "bufferView" : 4,
            "componentType" : 5126,
            "count" : 182,
            "max" : [
                0.5177116990089417,
                1.1873406171798706,
                0.7008255124092102
            ],
            "min" : [
                -0.5768594145774841,
                0.00445573590695858,
                -0.7008256912231445
            ],
            "type" : "VEC3"
        },
        {
            "bufferView" : 5,
            "componentType" : 5126,
            "count" : 182,
            "type" : "VEC3"
        },
        {
            "bufferView" : 6,
            "componentType" : 5126,
            "count" : 182,
            "type" : "VEC2"
        },
        {
            "bufferView" : 7,
            "componentType" : 5126,
            "count" : 182,
            "type" : "VEC2"
        },
        {
            "bufferView" : 8,
            "componentType" : 5121,
            "count" : 182,
            "type" : "VEC4"
        },
        {
            "bufferView" : 9,
            "componentType" : 5126,
            "count" : 182,
            "type" : "VEC4"
        },
        {
            "bufferView" : 10,
            "componentType" : 5123,
            "count" : 354,
            "type" : "SCALAR"
        },
        {
            "bufferView" : 11,
            "componentType" : 5126,
            "count" : 2,
            "type" : "MAT4"
        },
        {
            "bufferView" : 12,
            "componentType" : 5126,
            "count" : 8,
            "max" : [
                0.5518577098846436,
                0.5313771963119507,
                0.4306091070175171
            ],
            "min" : [
                -0.5518585443496704,
                0.4437781870365143,
                -0.37146151065826416
            ],
            "type" : "VEC3"
        },
        {
            "bufferView" : 13,
            "componentType" : 5126,
            "count" : 8,
            "type" : "VEC3"
        },
        {
            "bufferView" : 14,
            "componentType" : 5126,
            "count" : 8,
            "type" : "VEC2"
        },
        {
            "bufferView" : 15,
            "componentType" : 5126,
            "count" : 8,
            "type" : "VEC2"
        },
        {
            "bufferView" : 16,
            "componentType" : 5123,
            "count" : 30,
            "type" : "SCALAR"
        },
        {
            "bufferView" : 17,
            "componentType" : 5126,
            "count" : 1,
            "max" : [
                0.03333333333333333
            ],
            "min" : [
                0.03333333333333333
            ],
            "type" : "SCALAR"
        },
        {
            "bufferView" : 18,
            "componentType" : 5126,
            "count" : 1,
            "type" : "VEC3"
        },
        {
            "bufferView" : 19,
            "componentType" : 5126,
            "count" : 1,
            "type" : "VEC4"
        },
        {
            "bufferView" : 20,
            "componentType" : 5126,
            "count" : 1,
            "type" : "VEC3"
        },
        {
            "bufferView" : 21,
            "componentType" : 5126,
            "count" : 2,
            "max" : [
                2.3666666666666667
            ],
            "min" : [
                0.03333333333333333
            ],
            "type" : "SCALAR"
        },
        {
            "bufferView" : 22,
            "componentType" : 5126,
            "count" : 2,
            "type" : "VEC3"
        },
        {
            "bufferView" : 23,
            "componentType" : 5126,
            "count" : 71,
            "max" : [
                2.3666666666666667
            ],
            "min" : [
                0.03333333333333333
            ],
            "type" : "SCALAR"
        },
        {
            "bufferView" : 24,
            "componentType" : 5126,
            "count" : 71,
            "type" : "VEC4"
        },
        {
            "bufferView" : 25,
            "componentType" : 5126,
            "count" : 2,
            "type" : "VEC3"
        },
        {
            "bufferView" : 26,
            "componentType" : 5126,
            "count" : 2,
            "type" : "VEC3"
        },
        {
            "bufferView" : 27,
            "componentType" : 5126,
            "count" : 71,
            "type" : "VEC4"
        },
        {
            "bufferView" : 28,
            "componentType" : 5126,
            "count" : 2,
            "type" : "VEC3"
        }
    ],
    "bufferViews" : [
        {
            "buffer" : 0,
            "byteLength" : 48,
            "byteOffset" : 0
        },
        {
            "buffer" : 0,
            "byteLength" : 48,
            "byteOffset" : 48
        },
        {
            "buffer" : 0,
            "byteLength" : 32,
            "byteOffset" : 96
        },
        {
            "buffer" : 0,
            "byteLength" : 12,
            "byteOffset" : 128
        },
        {
            "buffer" : 0,
            "byteLength" : 2184,
            "byteOffset" : 140
        },
        {
            "buffer" : 0,
            "byteLength" : 2184,
            "byteOffset" : 2324
        },
        {
            "buffer" : 0,
            "byteLength" : 1456,
            "byteOffset" : 4508
        },
        {
            "buffer" : 0,
            "byteLength" : 1456,
            "byteOffset" : 5964
        },
        {
            "buffer" : 0,
            "byteLength" : 728,
            "byteOffset" : 7420
        },
        {
            "buffer" : 0,
            "byteLength" : 2912,
            "byteOffset" : 8148
        },
        {
            "buffer" : 0,
            "byteLength" : 708,
            "byteOffset" : 11060
        },
        {
            "buffer" : 0,
            "byteLength" : 128,
            "byteOffset" : 11768
        },
        {
            "buffer" : 0,
            "byteLength" : 96,
            "byteOffset" : 11896
        },
        {
            "buffer" : 0,
            "byteLength" : 96,
            "byteOffset" : 11992
        },
        {
            "buffer" : 0,
            "byteLength" : 64,
            "byteOffset" : 12088
        },
        {
            "buffer" : 0,
            "byteLength" : 64,
            "byteOffset" : 12152
        },
        {
            "buffer" : 0,
            "byteLength" : 60,
            "byteOffset" : 12216
        },
        {
            "buffer" : 0,
            "byteLength" : 4,
            "byteOffset" : 12276
        },
        {
            "buffer" : 0,
            "byteLength" : 12,
            "byteOffset" : 12280
        },
        {
            "buffer" : 0,
            "byteLength" : 16,
            "byteOffset" : 12292
        },
        {
            "buffer" : 0,
            "byteLength" : 12,
            "byteOffset" : 12308
        },
        {
            "buffer" : 0,
            "byteLength" : 8,
            "byteOffset" : 12320
        },
        {
            "buffer" : 0,
            "byteLength" : 24,
            "byteOffset" : 12328
        },
        {
            "buffer" : 0,
            "byteLength" : 284,
            "byteOffset" : 12352
        },
        {
            "buffer" : 0,
            "byteLength" : 1136,
            "byteOffset" : 12636
        },
        {
            "buffer" : 0,
            "byteLength" : 24,
            "byteOffset" : 13772
        },
        {
            "buffer" : 0,
            "byteLength" : 24,
            "byteOffset" : 13796
        },
        {
            "buffer" : 0,
            "byteLength" : 1136,
            "byteOffset" : 13820
        },
        {
            "buffer" : 0,
            "byteLength" : 24,
            "byteOffset" : 14956
        }
    ],
    "samplers" : [
        {
            "magFilter" : 9729,
            "minFilter" : 9987
        }
    ],
    "buffers" : [
        {
            "byteLength" : 14980,
            "uri" : "Tesouro.bin"
        }
    ]
}
